<svg width="36" height="33" viewBox="0 0 36 33" fill="none" xmlns="http://www.w3.org/2000/svg">
<path d="M35.4825 12C35.4825 10.74 34.835 9.6375 33.8375 9.025L19.7675 0.7825C18.6825 0.135 17.3175 0.135 16.2325 0.7825L2.1625 9.025C1.165 9.6375 0.5 10.74 0.5 12V29.5C0.5 31.425 2.075 33 4 33H32C33.925 33 35.5 31.425 35.5 29.5L35.4825 12ZM16.145 19.595L3.545 11.72L16.2325 4.2825C17.3175 3.635 18.6825 3.635 19.7675 4.2825L32.455 11.72L19.855 19.595C18.7175 20.295 17.2825 20.295 16.145 19.595Z" fill="#2F796F"/>
</svg>
