<svg width="102" height="30" viewBox="0 0 102 30" fill="none" xmlns="http://www.w3.org/2000/svg">
<path d="M0 26.496C0 25.8 0 24.888 0.0241135 23.76C0.048227 22.632 0.0964539 21.384 0.168794 20.016C0.241135 18.648 0.361702 17.208 0.530496 15.672C0.699291 14.16 0.916312 12.672 1.20567 11.184C1.49504 9.696 1.85674 8.304 2.29078 6.96C2.72482 5.616 3.25532 4.44 3.85816 3.408C4.48511 2.376 5.20851 1.56 6.02837 0.96C6.87234 0.36 7.83688 0.048 8.92199 0.048C9.4766 0.048 9.95887 0.144 10.2965 0.312C10.6582 0.48 10.9475 0.72 11.1645 1.008C11.3816 1.32 11.5262 1.68 11.5986 2.088C11.6709 2.52 11.7191 2.976 11.7191 3.504C11.7191 4.272 11.5986 5.112 11.3816 6.048C11.1645 6.984 10.8752 7.944 10.5135 8.952C10.1518 9.96 9.74184 10.968 9.28369 12.024C8.82553 13.056 8.34326 14.064 7.88511 15.024C7.40284 15.984 6.94468 16.92 6.46241 17.76C6.00425 18.624 5.59433 19.392 5.23262 20.04L5.5461 20.256C5.98014 19.704 6.46241 19.08 6.99291 18.456C7.5234 17.808 8.07801 17.208 8.65674 16.656C9.23546 16.104 9.79007 15.648 10.3688 15.264C10.9475 14.904 11.478 14.712 11.9603 14.712C12.0809 14.712 12.2255 14.736 12.3943 14.784C12.539 14.832 12.7078 14.928 12.8284 15.048C12.9731 15.168 13.0936 15.336 13.1901 15.576C13.2865 15.792 13.3348 16.08 13.3348 16.44C13.3348 17.136 13.2383 17.832 13.0454 18.504C12.8525 19.176 12.6355 19.848 12.3943 20.52C12.1532 21.192 11.9362 21.864 11.7433 22.56C11.5504 23.256 11.4539 23.976 11.4539 24.744C11.4539 25.152 11.5262 25.488 11.6468 25.728C11.7674 25.968 11.9362 26.112 12.1291 26.112C12.3702 26.112 12.6355 26.064 12.9248 25.968C13.2142 25.872 13.4794 25.728 13.7688 25.56C14.0582 25.392 14.3234 25.2 14.5887 24.984C14.8539 24.768 15.1191 24.552 15.3603 24.312C15.939 23.784 16.4936 23.184 17.0482 22.512L17.3135 26.664C17.1206 26.808 16.8794 27 16.5901 27.216C16.3007 27.432 15.9872 27.672 15.6255 27.912C15.2879 28.152 14.9021 28.392 14.4922 28.656C14.0823 28.896 13.6723 29.136 13.2624 29.328C12.8525 29.52 12.4426 29.688 12.0326 29.808C11.6227 29.928 11.2369 30 10.8511 30C10.2723 30 9.76596 29.856 9.35603 29.544C8.92198 29.232 8.5844 28.848 8.31915 28.368C8.0539 27.888 7.83688 27.384 7.71631 26.808C7.57163 26.256 7.5234 25.704 7.5234 25.224C7.5234 24.888 7.57163 24.528 7.66809 24.12C7.76454 23.712 7.86099 23.304 8.00567 22.872C8.12624 22.464 8.27092 22.056 8.43972 21.648C8.60851 21.264 8.75319 20.904 8.89787 20.592C9.04255 20.28 9.16312 20.016 9.25957 19.824C9.35603 19.632 9.42837 19.512 9.45248 19.488L9.11489 19.44C8.9461 19.56 8.63262 19.848 8.22269 20.304C7.78865 20.76 7.3305 21.36 6.8 22.08C6.2695 22.8 5.71489 23.592 5.13617 24.48C4.55745 25.368 4.05106 26.28 3.59291 27.216C3.37589 27.672 3.18298 28.08 3.0383 28.44C2.89362 28.776 2.74894 29.064 2.60426 29.304C2.45957 29.52 2.31489 29.688 2.1461 29.808C1.9773 29.928 1.76028 29.976 1.49504 29.976C1.15745 29.976 0.892199 29.88 0.675177 29.688C0.482269 29.496 0.313475 29.232 0.217021 28.896C0.120567 28.56 0.048227 28.2 0.0241135 27.768C0.0241135 27.336 0 26.928 0 26.496ZM3.42411 18.888C3.71348 18.24 4.00284 17.52 4.34043 16.752C4.67801 15.984 4.99149 15.216 5.32908 14.472C5.64255 13.728 5.95603 13.008 6.24539 12.336C6.53475 11.664 6.77589 11.088 6.96879 10.632C7.59574 9.048 8.02979 7.704 8.29504 6.6C8.5844 5.52 8.70496 4.704 8.70496 4.176C8.70496 3.384 8.60851 3 8.39149 3C8.12624 3 7.71631 3.432 7.18581 4.32C6.65532 5.208 6.02837 6.48 5.30496 8.16C5.13617 8.736 4.96738 9.312 4.82269 9.936C4.67801 10.56 4.53333 11.16 4.41277 11.76C4.2922 12.36 4.17163 12.96 4.07518 13.56C3.97872 14.136 3.88227 14.712 3.80993 15.24C3.66525 16.512 3.52057 17.712 3.42411 18.888ZM15.722 26.832C15.722 26.184 15.7943 25.416 15.939 24.552C16.0837 23.688 16.2766 22.776 16.4936 21.864C16.7106 20.928 16.9518 20.016 17.1929 19.08C17.434 18.168 17.6511 17.304 17.844 16.536C17.9163 16.272 18.061 16.032 18.278 15.84C18.495 15.648 18.7362 15.504 19.0255 15.384C19.2908 15.264 19.5801 15.168 19.8936 15.12C20.183 15.072 20.4723 15.024 20.7135 15.024C21.1475 15.024 21.4369 15.096 21.6057 15.264C21.7504 15.432 21.8468 15.648 21.8468 15.912C21.8468 16.128 21.7986 16.464 21.7021 16.896C21.6057 17.328 21.461 17.808 21.3163 18.36C21.1716 18.912 21.0028 19.488 20.8099 20.112C20.6411 20.736 20.4723 21.36 20.3035 22.008C20.1589 22.632 20.0142 23.256 19.9177 23.856C19.8213 24.456 19.7489 24.984 19.7489 25.464C19.7489 25.92 19.7972 26.304 19.9177 26.568C20.0142 26.832 20.2312 26.976 20.5688 26.976C20.9546 26.976 21.3645 26.856 21.8227 26.592C22.2809 26.328 22.739 26.016 23.2213 25.656C23.7035 25.296 24.1617 24.912 24.5957 24.504C25.0539 24.12 25.4397 23.76 25.7773 23.496V26.664C25.3915 27 24.9333 27.384 24.3787 27.768C23.8241 28.152 23.2213 28.512 22.5702 28.848C21.9191 29.184 21.2681 29.448 20.5929 29.664C19.9177 29.88 19.2908 30 18.6879 30C18.1333 30 17.6993 29.928 17.3135 29.784C16.9518 29.64 16.6383 29.424 16.4213 29.16C16.2043 28.896 16.0355 28.56 15.939 28.176C15.7702 27.72 15.722 27.288 15.722 26.832ZM18.7362 10.632C18.7362 10.392 18.7844 10.128 18.8809 9.816C18.9773 9.504 19.1461 9.24 19.3872 8.976C19.6284 8.712 19.9418 8.496 20.3277 8.304C20.7135 8.112 21.1957 8.04 21.7986 8.04C22.1603 8.04 22.4979 8.088 22.8355 8.16C23.1489 8.232 23.4383 8.376 23.6794 8.544C23.9206 8.712 24.1135 8.952 24.2582 9.216C24.4028 9.504 24.4752 9.84 24.4752 10.224C24.4752 10.584 24.427 10.92 24.3064 11.256C24.1858 11.592 24.017 11.88 23.7518 12.144C23.5106 12.408 23.173 12.624 22.8113 12.768C22.4255 12.936 21.9674 13.008 21.4369 13.008C20.5206 13.008 19.8454 12.792 19.4113 12.36C18.9532 11.928 18.7362 11.352 18.7362 10.632ZM24.6199 26.712C24.6199 26.256 24.644 25.728 24.6922 25.104C24.7404 24.504 24.8128 23.856 24.9092 23.184C25.0057 22.512 25.1021 21.816 25.2227 21.12C25.3433 20.424 25.4638 19.752 25.6085 19.128C25.7532 18.504 25.8738 17.904 26.0184 17.376C26.1631 16.848 26.2837 16.416 26.4284 16.08C26.5007 15.84 26.5972 15.672 26.6695 15.528C26.766 15.384 26.8624 15.288 26.9589 15.216C27.0794 15.144 27.2 15.096 27.3688 15.048C27.5376 15.024 27.7305 15 27.9716 15C28.2369 15 28.4539 15.024 28.5986 15.048C28.7433 15.072 28.8638 15.144 28.9362 15.24C29.0085 15.336 29.0567 15.48 29.0567 15.672C29.0808 15.864 29.0809 16.104 29.0809 16.44C29.0809 16.824 29.0809 17.28 29.0809 17.832C29.0809 18.384 29.0809 18.912 29.105 19.44H29.2738C29.4908 19.032 29.7078 18.552 29.9731 18.048C30.2383 17.544 30.5277 17.064 30.8894 16.608C31.227 16.176 31.6369 15.792 32.0709 15.48C32.505 15.168 33.0113 15.024 33.5901 15.024C33.783 15.024 33.9759 15.048 34.1688 15.12C34.3617 15.192 34.5305 15.288 34.6511 15.408C34.7957 15.528 34.9163 15.696 34.9887 15.864C35.061 16.056 35.1092 16.248 35.1092 16.488C35.1092 16.656 35.0851 16.92 35.0369 17.232C34.9887 17.544 34.9163 17.88 34.8681 18.24C34.7957 18.6 34.7475 18.936 34.6993 19.248C34.6511 19.584 34.6269 19.848 34.6269 20.064C34.6269 20.448 34.6752 20.736 34.7475 21C34.8199 21.24 34.9163 21.456 35.0369 21.6C35.1574 21.744 35.3021 21.864 35.4468 21.912C35.5915 21.984 35.7603 22.008 35.9291 22.008C36.3872 22.008 36.8695 21.912 37.3759 21.696C37.8823 21.48 38.3404 21.264 38.7504 21C39.2326 20.688 39.7149 20.352 40.1972 19.968L39.956 23.616C39.6908 23.784 39.3773 24 39.0397 24.216C38.7021 24.432 38.3163 24.648 37.9305 24.84C37.5447 25.032 37.1348 25.2 36.7007 25.32C36.2667 25.44 35.8567 25.512 35.3986 25.512C34.6028 25.512 33.9759 25.344 33.4936 25.032C33.0113 24.72 32.6255 24.312 32.3603 23.784C32.0709 23.28 31.878 22.704 31.7333 22.056C31.5887 21.408 31.4922 20.76 31.3957 20.112H31.1546L28.3574 27.888C28.2128 28.296 28.0681 28.632 27.9475 28.896C27.827 29.16 27.6823 29.376 27.5376 29.544C27.3929 29.712 27.2482 29.832 27.1035 29.88C26.9589 29.952 26.766 29.976 26.5972 29.976C26.1631 29.976 25.8255 29.88 25.5603 29.712C25.295 29.52 25.1021 29.28 24.9574 28.992C24.8128 28.68 24.7163 28.344 24.6681 27.936C24.644 27.528 24.6199 27.12 24.6199 26.712ZM37.5447 23.472C37.5447 22.896 37.5929 22.272 37.7135 21.624C37.834 20.976 38.0028 20.328 38.244 19.704C38.4851 19.08 38.7745 18.48 39.1362 17.928C39.4979 17.352 39.9078 16.872 40.3901 16.44C40.8723 16.008 41.4028 15.672 41.9816 15.408C42.5603 15.144 43.2355 15.024 43.9589 15.024C44.5376 15.024 45.0922 15.12 45.5986 15.312C46.105 15.504 46.539 15.768 46.9007 16.104C47.2624 16.44 47.5518 16.848 47.7688 17.328C47.9858 17.808 48.0823 18.336 48.0823 18.936C48.0823 19.584 47.9135 20.232 47.6 20.88C47.2865 21.528 46.8525 22.128 46.2738 22.704C45.7191 23.28 45.044 23.784 44.2723 24.24C43.5007 24.696 42.6567 25.032 41.7404 25.272C41.8851 25.56 42.0539 25.776 42.1986 25.968C42.3433 26.16 42.5121 26.304 42.6567 26.4C42.8255 26.496 42.9702 26.568 43.139 26.616C43.3078 26.664 43.5007 26.688 43.6936 26.688C44.3206 26.688 44.9716 26.568 45.6709 26.304C46.3702 26.064 47.0454 25.752 47.6965 25.368C48.3475 24.984 48.9745 24.576 49.5532 24.144C50.1319 23.712 50.6383 23.28 51.0482 22.896L53.0738 24.984C52.1574 25.92 51.1688 26.76 50.156 27.504C49.6979 27.816 49.2156 28.128 48.7092 28.416C48.2028 28.728 47.6482 28.992 47.0695 29.208C46.4908 29.448 45.9121 29.64 45.3092 29.784C44.7064 29.928 44.0794 30 43.4525 30C42.4638 30 41.6199 29.832 40.8723 29.472C40.1248 29.112 39.522 28.632 39.0397 28.056C38.5574 27.456 38.1716 26.76 37.9305 25.992C37.6652 25.152 37.5447 24.312 37.5447 23.472ZM41.3546 22.632C41.7404 22.632 42.1504 22.536 42.5844 22.344C43.0184 22.152 43.4525 21.912 43.8142 21.6C44.2 21.288 44.5135 20.976 44.7787 20.616C45.044 20.256 45.1645 19.92 45.1645 19.584C45.1645 19.104 45.0681 18.72 44.8993 18.432C44.7305 18.12 44.5135 17.976 44.2723 17.976C43.8142 17.976 43.4525 18.048 43.1149 18.216C42.8014 18.384 42.5362 18.6 42.3191 18.864C42.1021 19.128 41.9333 19.44 41.8128 19.776C41.6922 20.112 41.5957 20.448 41.5234 20.784C41.4511 21.12 41.4028 21.456 41.3787 21.792C41.3546 22.128 41.3546 22.416 41.3546 22.632ZM46.9489 13.8C46.9489 13.584 47.0454 13.44 47.2624 13.32C47.4553 13.2 47.7206 13.128 48.0582 13.08C48.3716 13.032 48.7333 13.008 49.095 13.008C49.2156 13.008 49.3362 13.008 49.4808 12.984C49.722 12.984 49.9631 12.984 50.2043 13.008C50.566 13.008 50.8794 13.032 51.1447 13.032C51.4099 13.032 51.6028 13.032 51.7234 13.008C52.0128 11.592 52.3745 10.248 52.7844 8.928C53.2184 7.608 53.7007 6.456 54.2312 5.424C54.7617 4.392 55.3645 3.576 55.9915 2.952C56.6184 2.328 57.2936 2.016 57.9929 2.016C58.4511 2.016 58.861 2.136 59.2227 2.4C59.5844 2.64 59.8979 2.976 60.1631 3.408C60.4284 3.816 60.6213 4.32 60.766 4.872C60.9106 5.424 60.983 6 60.983 6.6C60.983 7.104 60.9106 7.656 60.766 8.208C60.6213 8.784 60.4284 9.36 60.1631 9.936C59.922 10.512 59.6085 11.112 59.2709 11.712C58.9333 12.312 58.5716 12.912 58.2099 13.512C58.3064 13.512 58.4511 13.536 58.6681 13.536C58.8851 13.536 59.1504 13.536 59.4156 13.56C59.705 13.584 60.0184 13.584 60.356 13.608C60.6936 13.632 61.0071 13.632 61.3206 13.656C61.634 13.656 61.9234 13.68 62.1886 13.68C62.4539 13.68 62.695 13.704 62.8638 13.704C63.0809 13.704 63.2255 13.824 63.322 14.016C63.4184 14.208 63.4667 14.472 63.4667 14.76C63.4667 15.12 63.3702 15.432 63.1532 15.648C62.9362 15.864 62.7192 15.984 62.4539 15.984H56.4496C56.1362 16.392 55.8468 16.8 55.5333 17.208C55.2199 17.616 54.9305 17.976 54.6894 18.288C54.6411 18.936 54.617 19.56 54.5688 20.184C54.5688 20.448 54.5447 20.736 54.5447 21.024C54.5447 21.312 54.5206 21.6 54.5206 21.864C54.5206 22.152 54.4965 22.416 54.4965 22.68C54.4965 22.944 54.4965 23.184 54.4965 23.4C54.4965 23.952 54.5447 24.432 54.6411 24.816C54.7376 25.2 54.9064 25.512 55.0993 25.752C55.2922 25.992 55.5333 26.16 55.8227 26.28C56.1121 26.4 56.4255 26.448 56.7872 26.448C57.0043 26.448 57.2695 26.4 57.6071 26.304C57.9447 26.208 58.2823 26.064 58.6922 25.872C59.078 25.68 59.4879 25.464 59.922 25.224C60.356 24.984 60.7901 24.696 61.2 24.408C61.634 24.12 62.0199 23.808 62.4057 23.472C62.7915 23.136 63.1532 22.8 63.4426 22.464V26.448C62.4539 27.024 61.5617 27.528 60.766 27.984C59.9702 28.416 59.295 28.776 58.6681 29.088C58.0653 29.376 57.5106 29.592 57.0525 29.736C56.5702 29.88 56.1362 29.952 55.7745 29.952C54.9787 29.952 54.2794 29.712 53.6766 29.232C53.0738 28.752 52.5674 28.056 52.1574 27.168C51.7475 26.256 51.434 25.176 51.2411 23.904C51.0482 22.632 50.9277 21.192 50.9277 19.584C50.9277 18.96 50.9518 18.288 51 17.592C51.0482 16.896 51.1206 16.176 51.217 15.48C50.9035 15.432 50.6624 15.408 50.4936 15.36C50.3248 15.336 50.1319 15.288 49.939 15.24C49.7461 15.216 49.505 15.168 49.2156 15.12C48.9262 15.072 48.4922 15.024 47.9135 14.976C47.6723 14.952 47.4794 14.88 47.3348 14.808C47.1901 14.712 47.0936 14.616 47.0454 14.496C46.973 14.376 46.9489 14.256 46.9248 14.112C46.9489 14.016 46.9489 13.896 46.9489 13.8ZM54.6894 13.128C54.8582 13.152 55.0028 13.176 55.1475 13.176C55.3163 13.2 55.461 13.2 55.6298 13.224C55.9433 12.696 56.2808 12.12 56.5943 11.496C56.9319 10.872 57.2454 10.272 57.5106 9.672C57.7759 9.072 58.017 8.52 58.1858 7.992C58.3546 7.464 58.4511 7.056 58.4511 6.72C58.4511 6.6 58.4511 6.48 58.4269 6.336C58.4028 6.192 58.3787 6.072 58.3305 5.928C58.2823 5.808 58.2099 5.712 58.0894 5.616C57.9688 5.52 57.8241 5.496 57.6312 5.496C57.366 5.496 57.0766 5.736 56.8113 6.216C56.522 6.696 56.2567 7.296 56.0156 8.04C55.7504 8.784 55.5333 9.6 55.2922 10.488C55.0752 11.424 54.8823 12.288 54.6894 13.128ZM61.9957 23.16C61.9957 22.008 62.1645 20.952 62.5021 19.968C62.8397 18.984 63.3461 18.12 63.973 17.376C64.6241 16.632 65.3958 16.056 66.3362 15.648C67.2766 15.216 68.3135 15.024 69.4709 15.024C70.4596 15.024 71.4 15.168 72.2681 15.48C73.1362 15.792 73.956 16.2 74.7035 16.704C75.4511 17.208 76.1745 17.808 76.8255 18.48C77.4766 19.152 78.0794 19.824 78.6582 20.544L78.3688 22.752C78.0794 22.368 77.6936 21.96 77.2355 21.528C76.7532 21.096 76.2468 20.664 75.7163 20.256C75.1858 19.848 74.6553 19.44 74.1248 19.08C73.5943 18.72 73.1603 18.408 72.7745 18.144L72.6539 18.312C72.9674 18.912 73.1844 19.56 73.3291 20.232C73.4738 20.904 73.5461 21.552 73.5461 22.152C73.5461 22.752 73.4738 23.376 73.3532 24C73.2085 24.624 73.0156 25.224 72.7745 25.8C72.5092 26.376 72.2199 26.928 71.834 27.432C71.4723 27.936 71.0383 28.392 70.556 28.752C70.0738 29.136 69.5674 29.424 68.9886 29.64C68.434 29.856 67.8312 29.976 67.1801 29.976C66.2638 29.976 65.4681 29.784 64.817 29.376C64.166 28.968 63.6355 28.464 63.2014 27.816C62.7915 27.168 62.478 26.448 62.2851 25.632C62.0922 24.792 61.9957 23.976 61.9957 23.16ZM65.4922 23.784C65.4922 24.216 65.5404 24.624 65.6128 25.008C65.7092 25.392 65.8298 25.728 65.9986 26.016C66.1674 26.304 66.4085 26.52 66.6979 26.712C66.9872 26.88 67.3489 26.976 67.7347 26.976C68.0965 26.976 68.434 26.808 68.7716 26.448C69.1092 26.088 69.3986 25.632 69.6397 25.08C69.8808 24.528 70.0979 23.928 70.2426 23.28C70.3872 22.608 70.4596 21.984 70.4596 21.384C70.4596 20.904 70.4114 20.448 70.339 20.04C70.2667 19.632 70.1461 19.272 70.0014 18.984C69.8567 18.672 69.6638 18.432 69.4468 18.264C69.2298 18.096 68.9404 18 68.627 18C68.1929 18 67.783 18.192 67.4213 18.552C67.0355 18.912 66.6979 19.392 66.4085 19.944C66.1191 20.52 65.878 21.144 65.7092 21.816C65.5887 22.488 65.4922 23.16 65.4922 23.784ZM75.6681 23.16C75.6681 22.008 75.8369 20.952 76.1745 19.968C76.5121 18.984 77.0184 18.12 77.6454 17.376C78.2964 16.632 79.0681 16.056 80.0085 15.648C80.9489 15.216 81.9858 15.024 83.1433 15.024C84.1319 15.024 85.0723 15.168 85.9163 15.48C86.7844 15.792 87.6042 16.2 88.3518 16.704C89.0993 17.208 89.8227 17.808 90.4738 18.48C91.1248 19.152 91.7277 19.824 92.3064 20.544L92.017 22.752C91.7277 22.368 91.366 21.96 90.8837 21.528C90.4014 21.096 89.895 20.664 89.3645 20.256C88.834 19.848 88.3035 19.44 87.773 19.08C87.2426 18.72 86.8085 18.408 86.4227 18.144L86.3021 18.312C86.6156 18.912 86.8326 19.56 86.9773 20.232C87.122 20.904 87.1943 21.552 87.1943 22.152C87.1943 22.752 87.122 23.376 87.0014 24C86.8567 24.624 86.6638 25.224 86.4227 25.8C86.1574 26.376 85.844 26.928 85.4823 27.432C85.1206 27.936 84.6865 28.392 84.2043 28.752C83.722 29.136 83.2156 29.424 82.6369 29.64C82.0823 29.856 81.4794 29.976 80.8284 29.976C79.9121 29.976 79.1163 29.784 78.4652 29.376C77.8142 28.968 77.2837 28.464 76.8738 27.816C76.4638 27.168 76.1504 26.448 75.9574 25.632C75.7645 24.792 75.6681 23.976 75.6681 23.16ZM79.1645 23.784C79.1645 24.216 79.2128 24.624 79.2851 25.008C79.3574 25.392 79.5021 25.728 79.6709 26.016C79.8397 26.304 80.0808 26.52 80.3702 26.712C80.6596 26.88 81.0213 26.976 81.4312 26.976C81.7929 26.976 82.1305 26.808 82.4681 26.448C82.8057 26.088 83.095 25.632 83.3362 25.08C83.5773 24.528 83.7943 23.928 83.939 23.28C84.0837 22.608 84.156 21.984 84.156 21.384C84.156 20.904 84.1078 20.448 84.0355 20.04C83.9631 19.632 83.8426 19.272 83.6979 18.984C83.5532 18.672 83.3603 18.432 83.1433 18.264C82.9021 18.096 82.6369 18 82.3234 18C81.8894 18 81.4794 18.192 81.0936 18.552C80.7078 18.912 80.3702 19.392 80.0808 19.944C79.7915 20.52 79.5504 21.144 79.4057 21.816C79.2369 22.488 79.1645 23.16 79.1645 23.784ZM89.8227 20.88C89.8227 19.944 89.895 18.96 90.0397 17.856C90.1844 16.776 90.3773 15.648 90.6425 14.496C90.9078 13.344 91.2213 12.192 91.583 11.016C91.9447 9.864 92.3546 8.736 92.8128 7.656C93.2709 6.6 93.7532 5.592 94.2837 4.656C94.8142 3.72 95.3688 2.928 95.9475 2.232C96.5262 1.536 97.1291 1.008 97.7801 0.6C98.4071 0.216 99.0582 0 99.7333 0C100.191 0 100.553 0.096 100.843 0.312C101.132 0.504 101.373 0.792 101.542 1.128C101.711 1.464 101.831 1.824 101.904 2.256C101.976 2.688 102 3.096 102 3.552C102 4.536 101.879 5.52 101.662 6.528C101.445 7.536 101.132 8.568 100.746 9.576C100.36 10.608 99.9262 11.616 99.4199 12.648C98.9135 13.68 98.4071 14.688 97.8525 15.72C97.2979 16.728 96.7674 17.736 96.2128 18.72C95.6582 19.704 95.1518 20.664 94.6695 21.6C94.6213 21.696 94.573 21.84 94.5007 22.008C94.4525 22.176 94.3801 22.344 94.3319 22.536C94.2837 22.728 94.2355 22.944 94.1631 23.16C94.1149 23.376 94.0667 23.592 94.0426 23.808V24.024C94.0426 24.288 94.0667 24.552 94.139 24.816C94.1872 25.08 94.2596 25.296 94.356 25.488C94.4284 25.68 94.5248 25.848 94.6213 25.968C94.7177 26.088 94.8142 26.16 94.8865 26.16C95.0794 26.16 95.3206 26.112 95.5617 26.04C95.827 25.944 96.0922 25.848 96.3816 25.704C96.6709 25.56 96.9603 25.392 97.2738 25.224C97.5872 25.032 97.8766 24.864 98.1418 24.672C98.7929 24.24 99.4922 23.736 100.216 23.16L101.494 26.424C100.553 27.096 99.6369 27.672 98.7447 28.2C98.3589 28.416 97.9489 28.632 97.5149 28.848C97.105 29.064 96.6709 29.256 96.2369 29.424C95.8028 29.592 95.3929 29.736 94.983 29.832C94.5731 29.928 94.1872 29.976 93.8496 29.976C93.295 29.976 92.7645 29.736 92.2823 29.232C91.8 28.752 91.366 28.08 91.0042 27.24C90.6425 26.4 90.3532 25.44 90.1603 24.36C89.9192 23.256 89.8227 22.104 89.8227 20.88ZM93.8255 17.496C94.2837 16.656 94.7901 15.72 95.3206 14.688C95.8511 13.656 96.3574 12.576 96.8156 11.472C97.2738 10.368 97.6837 9.264 98.0454 8.184C98.383 7.08 98.6 6.072 98.6964 5.112C98.6964 4.8 98.6965 4.56 98.6723 4.344C98.6482 4.128 98.6 4.032 98.5277 4.032C98.2142 4.032 97.9007 4.224 97.539 4.608C97.2014 4.992 96.8397 5.52 96.5021 6.192C96.1404 6.864 95.8269 7.632 95.4894 8.52C95.1759 9.408 94.8865 10.344 94.6454 11.352C94.4043 12.336 94.1872 13.368 94.0426 14.424C93.8979 15.48 93.8255 16.488 93.8255 17.496Z" fill="#2F796F"/>
</svg>
